<svg width="100%" viewBox="0 0 680 440" role="img" xmlns="http://www.w3.org/2000/svg">
<title>Bundle evidence folder structure</title>
<desc>Tree diagram showing the evidence folder layout organised by NIST 800-53 control family with example files in each folder</desc>
<text x="340" y="26" text-anchor="middle" font-family="Arial,sans-serif" font-size="15" font-weight="bold" fill="#1A4B8A">Evidence folder structure — Step 3</text>
<text x="340" y="44" text-anchor="middle" font-family="Arial,sans-serif" font-size="11" fill="#555555">All control implementation evidence organised by NIST 800-53 family</text>

<!-- Root folder -->
<rect x="30" y="60" width="100" height="34" rx="6" fill="#1A4B8A"/>
<text x="80" y="81" text-anchor="middle" font-family="Arial,sans-serif" font-size="12" font-weight="bold" fill="#FFFFFF">evidence/</text>

<!-- Vertical line down from root -->
<line x1="80" y1="94" x2="80" y2="110" stroke="#185FA5" stroke-width="1.5"/>

<!-- Branch line -->
<line x1="80" y1="110" x2="640" y2="110" stroke="#185FA5" stroke-width="1.5"/>

<!-- Sub-folders and their contents -->

<line x1="110" y1="110" x2="110" y2="130" stroke="#185FA5" stroke-width="1.2"/>
<rect x="50" y="130" width="110" height="30" rx="6" fill="#185FA5"/>
<text x="110" y="149" text-anchor="middle" font-family="Arial,sans-serif" font-size="12" font-weight="bold" fill="white">AC/</text>

<line x1="110" y1="160" x2="110" y2="174" stroke="#185FA5" stroke-width="0.8" stroke-dasharray="3 2"/>
<rect x="50" y="174" width="110" height="36" rx="4" fill="#E6F1FB" stroke="#185FA5" stroke-width="0.5"/>
<text x="110" y="186" text-anchor="middle" font-family="Arial,sans-serif" font-size="9" fill="#333">account-request-form...</text>

<line x1="110" y1="162" x2="110" y2="222" stroke="#185FA5" stroke-width="0.8" stroke-dasharray="3 2"/>
<rect x="50" y="222" width="110" height="36" rx="4" fill="#E6F1FB" stroke="#185FA5" stroke-width="0.5"/>
<text x="110" y="234" text-anchor="middle" font-family="Arial,sans-serif" font-size="9" fill="#333">quarterly-review-log...</text>

<line x1="110" y1="164" x2="110" y2="270" stroke="#185FA5" stroke-width="0.8" stroke-dasharray="3 2"/>
<rect x="50" y="270" width="110" height="36" rx="4" fill="#E6F1FB" stroke="#185FA5" stroke-width="0.5"/>
<text x="110" y="282" text-anchor="middle" font-family="Arial,sans-serif" font-size="9" fill="#333">rbac-matrix.xlsx</text>

<line x1="230" y1="110" x2="230" y2="130" stroke="#0F6E56" stroke-width="1.2"/>
<rect x="170" y="130" width="110" height="30" rx="6" fill="#0F6E56"/>
<text x="230" y="149" text-anchor="middle" font-family="Arial,sans-serif" font-size="12" font-weight="bold" fill="white">AU/</text>

<line x1="230" y1="160" x2="230" y2="174" stroke="#0F6E56" stroke-width="0.8" stroke-dasharray="3 2"/>
<rect x="170" y="174" width="110" height="36" rx="4" fill="#E1F5EE" stroke="#0F6E56" stroke-width="0.5"/>
<text x="230" y="186" text-anchor="middle" font-family="Arial,sans-serif" font-size="9" fill="#333">cloudwatch-sample-lo...</text>

<line x1="230" y1="162" x2="230" y2="222" stroke="#0F6E56" stroke-width="0.8" stroke-dasharray="3 2"/>
<rect x="170" y="222" width="110" height="36" rx="4" fill="#E1F5EE" stroke="#0F6E56" stroke-width="0.5"/>
<text x="230" y="234" text-anchor="middle" font-family="Arial,sans-serif" font-size="9" fill="#333">retention-config.png</text>

<line x1="230" y1="164" x2="230" y2="270" stroke="#0F6E56" stroke-width="0.8" stroke-dasharray="3 2"/>
<rect x="170" y="270" width="110" height="36" rx="4" fill="#E1F5EE" stroke="#0F6E56" stroke-width="0.5"/>
<text x="230" y="282" text-anchor="middle" font-family="Arial,sans-serif" font-size="9" fill="#333">weekly-review-log.xlsx</text>

<line x1="350" y1="110" x2="350" y2="130" stroke="#534AB7" stroke-width="1.2"/>
<rect x="290" y="130" width="110" height="30" rx="6" fill="#534AB7"/>
<text x="350" y="149" text-anchor="middle" font-family="Arial,sans-serif" font-size="12" font-weight="bold" fill="white">IA/</text>

<line x1="350" y1="160" x2="350" y2="174" stroke="#534AB7" stroke-width="0.8" stroke-dasharray="3 2"/>
<rect x="290" y="174" width="110" height="36" rx="4" fill="#EEEDFE" stroke="#534AB7" stroke-width="0.5"/>
<text x="350" y="186" text-anchor="middle" font-family="Arial,sans-serif" font-size="9" fill="#333">cognito-mfa-config.png</text>

<line x1="350" y1="162" x2="350" y2="222" stroke="#534AB7" stroke-width="0.8" stroke-dasharray="3 2"/>
<rect x="290" y="222" width="110" height="36" rx="4" fill="#EEEDFE" stroke="#534AB7" stroke-width="0.5"/>
<text x="350" y="234" text-anchor="middle" font-family="Arial,sans-serif" font-size="9" fill="#333">yubikey-registration...</text>

<line x1="350" y1="164" x2="350" y2="270" stroke="#534AB7" stroke-width="0.8" stroke-dasharray="3 2"/>
<rect x="290" y="270" width="110" height="36" rx="4" fill="#EEEDFE" stroke="#534AB7" stroke-width="0.5"/>
<text x="350" y="282" text-anchor="middle" font-family="Arial,sans-serif" font-size="9" fill="#333">password-policy.png</text>

<line x1="470" y1="110" x2="470" y2="130" stroke="#854F0B" stroke-width="1.2"/>
<rect x="410" y="130" width="110" height="30" rx="6" fill="#854F0B"/>
<text x="470" y="149" text-anchor="middle" font-family="Arial,sans-serif" font-size="12" font-weight="bold" fill="white">SC/</text>

<line x1="470" y1="160" x2="470" y2="174" stroke="#854F0B" stroke-width="0.8" stroke-dasharray="3 2"/>
<rect x="410" y="174" width="110" height="36" rx="4" fill="#FAEEDA" stroke="#854F0B" stroke-width="0.5"/>
<text x="470" y="186" text-anchor="middle" font-family="Arial,sans-serif" font-size="9" fill="#333">vpc-architecture.png</text>

<line x1="470" y1="162" x2="470" y2="222" stroke="#854F0B" stroke-width="0.8" stroke-dasharray="3 2"/>
<rect x="410" y="222" width="110" height="36" rx="4" fill="#FAEEDA" stroke="#854F0B" stroke-width="0.5"/>
<text x="470" y="234" text-anchor="middle" font-family="Arial,sans-serif" font-size="9" fill="#333">ssl-labs-result.png</text>

<line x1="470" y1="164" x2="470" y2="270" stroke="#854F0B" stroke-width="0.8" stroke-dasharray="3 2"/>
<rect x="410" y="270" width="110" height="36" rx="4" fill="#FAEEDA" stroke="#854F0B" stroke-width="0.5"/>
<text x="470" y="282" text-anchor="middle" font-family="Arial,sans-serif" font-size="9" fill="#333">rds-encryption.png</text>

<line x1="590" y1="110" x2="590" y2="130" stroke="#CC0000" stroke-width="1.2"/>
<rect x="530" y="130" width="110" height="30" rx="6" fill="#CC0000"/>
<text x="590" y="149" text-anchor="middle" font-family="Arial,sans-serif" font-size="12" font-weight="bold" fill="white">IR/</text>

<line x1="590" y1="160" x2="590" y2="174" stroke="#CC0000" stroke-width="0.8" stroke-dasharray="3 2"/>
<rect x="530" y="174" width="110" height="36" rx="4" fill="#FFEBEE" stroke="#CC0000" stroke-width="0.5"/>
<text x="590" y="186" text-anchor="middle" font-family="Arial,sans-serif" font-size="9" fill="#333">incident-response-pl...</text>

<line x1="590" y1="162" x2="590" y2="222" stroke="#CC0000" stroke-width="0.8" stroke-dasharray="3 2"/>
<rect x="530" y="222" width="110" height="36" rx="4" fill="#FFEBEE" stroke="#CC0000" stroke-width="0.5"/>
<text x="590" y="234" text-anchor="middle" font-family="Arial,sans-serif" font-size="9" fill="#333">ransomware-playbook.md</text>

<line x1="590" y1="164" x2="590" y2="270" stroke="#CC0000" stroke-width="0.8" stroke-dasharray="3 2"/>
<rect x="530" y="270" width="110" height="36" rx="4" fill="#FFEBEE" stroke="#CC0000" stroke-width="0.5"/>
<text x="590" y="282" text-anchor="middle" font-family="Arial,sans-serif" font-size="9" fill="#333">tabletop-report.md</text>


<!-- Second row of folders -->
<line x1="80" y1="110" x2="80" y2="350" stroke="#185FA5" stroke-width="1.2" stroke-dasharray="4 3"/>
<line x1="80" y1="350" x2="540" y2="350" stroke="#185FA5" stroke-width="1.2"/>


<line x1="105" y1="350" x2="105" y2="368" stroke="#1D9E75" stroke-width="1.2"/>
<rect x="50" y="368" width="110" height="30" rx="6" fill="#1D9E75"/>
<text x="105" y="387" text-anchor="middle" font-family="Arial,sans-serif" font-size="11" font-weight="bold" fill="white">SI/</text>
<text x="105" y="415" text-anchor="middle" font-family="Arial,sans-serif" font-size="9" fill="#555">System integrity</text>
<line x1="225" y1="350" x2="225" y2="368" stroke="#185FA5" stroke-width="1.2"/>
<rect x="170" y="368" width="110" height="30" rx="6" fill="#185FA5"/>
<text x="225" y="387" text-anchor="middle" font-family="Arial,sans-serif" font-size="11" font-weight="bold" fill="white">CP/</text>
<text x="225" y="415" text-anchor="middle" font-family="Arial,sans-serif" font-size="9" fill="#555">Contingency plan</text>
<line x1="345" y1="350" x2="345" y2="368" stroke="#BA7517" stroke-width="1.2"/>
<rect x="290" y="368" width="110" height="30" rx="6" fill="#BA7517"/>
<text x="345" y="387" text-anchor="middle" font-family="Arial,sans-serif" font-size="11" font-weight="bold" fill="white">RA/</text>
<text x="345" y="415" text-anchor="middle" font-family="Arial,sans-serif" font-size="9" fill="#555">Risk assessment</text>
<line x1="465" y1="350" x2="465" y2="368" stroke="#5F5E5A" stroke-width="1.2"/>
<rect x="410" y="368" width="110" height="30" rx="6" fill="#5F5E5A"/>
<text x="465" y="387" text-anchor="middle" font-family="Arial,sans-serif" font-size="11" font-weight="bold" fill="white">aws/</text>
<text x="465" y="415" text-anchor="middle" font-family="Arial,sans-serif" font-size="9" fill="#555">AWS compliance</text>
<line x1="565" y1="350" x2="565" y2="368" stroke="#444441" stroke-width="1.2"/>
<rect x="510" y="368" width="110" height="30" rx="6" fill="#444441"/>
<text x="565" y="387" text-anchor="middle" font-family="Arial,sans-serif" font-size="11" font-weight="bold" fill="white">policies/</text>
<text x="565" y="415" text-anchor="middle" font-family="Arial,sans-serif" font-size="9" fill="#555">All policies</text>

  ![Evidence folder structure](14-evidence-folder-structure.svg)
</svg>
