<svg width="100%" viewBox="0 0 680 380" role="img" xmlns="http://www.w3.org/2000/svg">
<title>Bundle continuous monitoring calendar</title>
<desc>Grid showing when each monitoring activity occurs throughout the year: weekly, monthly, quarterly, and annually</desc>
<text x="340" y="26" text-anchor="middle" font-family="Arial,sans-serif" font-size="15" font-weight="bold" fill="#1A4B8A">Continuous monitoring schedule — Step 6</text>
<text x="340" y="44" text-anchor="middle" font-family="Arial,sans-serif" font-size="11" fill="#555">Owner: James Okafor (ISSO) | ATO: BUNDLE-ATO-2025-001</text>

<!-- Headers -->
<rect x="30" y="58" width="220" height="26" rx="4" fill="#1A4B8A"/>
<text x="140" y="75" text-anchor="middle" font-family="Arial,sans-serif" font-size="11" font-weight="bold" fill="#FFFFFF">Monitoring activity</text>
<rect x="258" y="58" width="60" height="26" rx="4" fill="#534AB7"/>
<text x="288" y="75" text-anchor="middle" font-family="Arial,sans-serif" font-size="11" font-weight="bold" fill="#FFFFFF">Weekly</text>
<rect x="326" y="58" width="70" height="26" rx="4" fill="#185FA5"/>
<text x="361" y="75" text-anchor="middle" font-family="Arial,sans-serif" font-size="11" font-weight="bold" fill="#FFFFFF">Monthly</text>
<rect x="404" y="58" width="80" height="26" rx="4" fill="#0F6E56"/>
<text x="444" y="75" text-anchor="middle" font-family="Arial,sans-serif" font-size="11" font-weight="bold" fill="#FFFFFF">Quarterly</text>
<rect x="492" y="58" width="80" height="26" rx="4" fill="#854F0B"/>
<text x="532" y="75" text-anchor="middle" font-family="Arial,sans-serif" font-size="11" font-weight="bold" fill="#FFFFFF">Annually</text>
<rect x="580" y="58" width="80" height="26" rx="4" fill="#5F5E5A"/>
<text x="620" y="75" text-anchor="middle" font-family="Arial,sans-serif" font-size="11" font-weight="bold" fill="#FFFFFF">Owner</text>

<!-- Rows -->
<rect x="30" y="92" width="630" height="18" rx="0" fill="#F4F7FC"/>
<text x="36" y="104" font-family="Arial,sans-serif" font-size="10" fill="#333">Audit log review</text>
<circle cx="288" cy="99" r="7" fill="#534AB7"/>
<text x="620" y="104" text-anchor="middle" font-family="Arial,sans-serif" font-size="10" fill="#555">ISSO</text><rect x="30" y="110" width="630" height="18" rx="0" fill="#FFFFFF"/>
<text x="36" y="122" font-family="Arial,sans-serif" font-size="10" fill="#333">GuardDuty review</text>
<circle cx="288" cy="117" r="7" fill="#534AB7"/>
<text x="620" y="122" text-anchor="middle" font-family="Arial,sans-serif" font-size="10" fill="#555">ISSO</text><rect x="30" y="128" width="630" height="18" rx="0" fill="#F4F7FC"/>
<text x="36" y="140" font-family="Arial,sans-serif" font-size="10" fill="#333">Vulnerability scan (EC2)</text>
<circle cx="361" cy="135" r="7" fill="#185FA5"/>
<text x="620" y="140" text-anchor="middle" font-family="Arial,sans-serif" font-size="10" fill="#555">ISSE</text><rect x="30" y="146" width="630" height="18" rx="0" fill="#FFFFFF"/>
<text x="36" y="158" font-family="Arial,sans-serif" font-size="10" fill="#333">POA&M review + AO report</text>
<circle cx="361" cy="153" r="7" fill="#185FA5"/>
<text x="620" y="158" text-anchor="middle" font-family="Arial,sans-serif" font-size="10" fill="#555">ISSO</text><rect x="30" y="164" width="630" height="18" rx="0" fill="#F4F7FC"/>
<text x="36" y="176" font-family="Arial,sans-serif" font-size="10" fill="#333">Security Hub review</text>
<circle cx="361" cy="171" r="7" fill="#185FA5"/>
<text x="620" y="176" text-anchor="middle" font-family="Arial,sans-serif" font-size="10" fill="#555">ISSE</text><rect x="30" y="182" width="630" height="18" rx="0" fill="#FFFFFF"/>
<text x="36" y="194" font-family="Arial,sans-serif" font-size="10" fill="#333">AWS Config compliance</text>
<circle cx="361" cy="189" r="7" fill="#185FA5"/>
<text x="620" y="194" text-anchor="middle" font-family="Arial,sans-serif" font-size="10" fill="#555">ISSE</text><rect x="30" y="200" width="630" height="18" rx="0" fill="#F4F7FC"/>
<text x="36" y="212" font-family="Arial,sans-serif" font-size="10" fill="#333">Patch currency check</text>
<circle cx="361" cy="207" r="7" fill="#185FA5"/>
<text x="620" y="212" text-anchor="middle" font-family="Arial,sans-serif" font-size="10" fill="#555">ISSE</text><rect x="30" y="218" width="630" height="18" rx="0" fill="#FFFFFF"/>
<text x="36" y="230" font-family="Arial,sans-serif" font-size="10" fill="#333">Training completion check</text>
<circle cx="361" cy="225" r="7" fill="#185FA5"/>
<text x="620" y="230" text-anchor="middle" font-family="Arial,sans-serif" font-size="10" fill="#555">ISSO</text><rect x="30" y="236" width="630" height="18" rx="0" fill="#F4F7FC"/>
<text x="36" y="248" font-family="Arial,sans-serif" font-size="10" fill="#333">OWASP ZAP web scan</text>
<circle cx="444" cy="243" r="7" fill="#0F6E56"/>
<text x="620" y="248" text-anchor="middle" font-family="Arial,sans-serif" font-size="10" fill="#555">ISSE</text><rect x="30" y="254" width="630" height="18" rx="0" fill="#FFFFFF"/>
<text x="36" y="266" font-family="Arial,sans-serif" font-size="10" fill="#333">Control spot-check (5 controls)</text>
<circle cx="444" cy="261" r="7" fill="#0F6E56"/>
<text x="620" y="266" text-anchor="middle" font-family="Arial,sans-serif" font-size="10" fill="#555">ISSO</text><rect x="30" y="272" width="630" height="18" rx="0" fill="#F4F7FC"/>
<text x="36" y="284" font-family="Arial,sans-serif" font-size="10" fill="#333">Posture report to AO</text>
<circle cx="444" cy="279" r="7" fill="#0F6E56"/>
<text x="620" y="284" text-anchor="middle" font-family="Arial,sans-serif" font-size="10" fill="#555">ISSO</text><rect x="30" y="290" width="630" height="18" rx="0" fill="#FFFFFF"/>
<text x="36" y="302" font-family="Arial,sans-serif" font-size="10" fill="#333">Full control assessment</text>
<circle cx="532" cy="297" r="7" fill="#854F0B"/>
<text x="620" y="302" text-anchor="middle" font-family="Arial,sans-serif" font-size="10" fill="#555">External</text><rect x="30" y="308" width="630" height="18" rx="0" fill="#F4F7FC"/>
<text x="36" y="320" font-family="Arial,sans-serif" font-size="10" fill="#333">Vendor / BAA review</text>
<circle cx="532" cy="315" r="7" fill="#854F0B"/>
<text x="620" y="320" text-anchor="middle" font-family="Arial,sans-serif" font-size="10" fill="#555">ISSO</text><rect x="30" y="326" width="630" height="18" rx="0" fill="#FFFFFF"/>
<text x="36" y="338" font-family="Arial,sans-serif" font-size="10" fill="#333">Annual security review</text>
<circle cx="532" cy="333" r="7" fill="#854F0B"/>
<text x="620" y="338" text-anchor="middle" font-family="Arial,sans-serif" font-size="10" fill="#555">ISSO</text>

<!-- Legend -->
<text x="30" y="354" font-family="Arial,sans-serif" font-size="10" font-weight="bold" fill="#444">Legend:</text>
<circle cx="84" cy="350" r="6" fill="#534AB7"/>
<text x="94" y="354" font-family="Arial,sans-serif" font-size="10" fill="#444">Weekly</text>
<circle cx="148" cy="350" r="6" fill="#185FA5"/>
<text x="158" y="354" font-family="Arial,sans-serif" font-size="10" fill="#444">Monthly</text>
<circle cx="220" cy="350" r="6" fill="#0F6E56"/>
<text x="230" y="354" font-family="Arial,sans-serif" font-size="10" fill="#444">Quarterly</text>
<circle cx="302" cy="350" r="6" fill="#854F0B"/>
<text x="312" y="354" font-family="Arial,sans-serif" font-size="10" fill="#444">Annually</text>
<text x="400" y="354" font-family="Arial,sans-serif" font-size="10" fill="#185FA5">First priority: IR training 100% completion within 30 days of ATO</text>
</svg>